<svg width="24" height="25" viewBox="0 0 24 25" fill="none" xmlns="http://www.w3.org/2000/svg">
<g id="Frame">
<g id="Vector">
<path d="M14.235 19.5C15.1 19.5 15.557 20.524 14.98 21.168C14.6052 21.5875 14.1459 21.9229 13.6324 22.1525C13.1188 22.3821 12.5625 22.5005 12 22.5C11.4375 22.5005 10.8812 22.3821 10.3676 22.1525C9.85409 21.9229 9.39484 21.5875 9.02001 21.168C8.46801 20.552 8.86201 19.589 9.65401 19.507L9.76401 19.501L14.235 19.5Z" fill="#2592F6"/>
<path d="M12 2.5C13.358 2.5 14.506 3.403 14.875 4.641L14.921 4.812L14.929 4.855C16.0314 5.4769 16.9708 6.3511 17.6702 7.406C18.3697 8.4609 18.8093 9.66648 18.953 10.924L18.981 11.211L19 11.5V14.431L19.021 14.567C19.1579 15.3038 19.5657 15.9627 20.164 16.414L20.331 16.531L20.493 16.63C21.353 17.117 21.053 18.396 20.116 18.494L20 18.5H4.00001C2.97201 18.5 2.61301 17.136 3.50701 16.63C3.88804 16.4144 4.21725 16.118 4.47155 15.7616C4.72584 15.4052 4.89905 14.9974 4.97901 14.567L5.00001 14.424L5.00101 11.454C5.06198 10.1479 5.44217 8.87661 6.10829 7.75147C6.77442 6.62632 7.70618 5.68161 8.82201 5L9.07001 4.854L9.08001 4.811C9.22146 4.21303 9.54296 3.67284 10.0011 3.26334C10.4592 2.85384 11.032 2.59473 11.642 2.521L11.824 2.504L12 2.5Z" fill="#2592F6"/>
</g>
</g>
</svg>
